<mxfile host="app.diagrams.net" agent="Mozilla/5.0 (Windows NT 10.0; Win64; x64) AppleWebKit/537.36 (KHTML, like Gecko) Chrome/127.0.0.0 Safari/537.36" version="24.7.6">
  <diagram name="페이지-1" id="L8jfgrKpCcLMpMqRKeH3">
    <mxGraphModel dx="1574" dy="858" grid="0" gridSize="10" guides="1" tooltips="1" connect="1" arrows="1" fold="1" page="1" pageScale="1" pageWidth="827" pageHeight="1169" math="0" shadow="0">
      <root>
        <mxCell id="0" />
        <mxCell id="1" parent="0" />
        <mxCell id="JaRT182NyoHVZg690AKc-2" value="사용자" style="shape=umlActor;verticalLabelPosition=bottom;verticalAlign=top;html=1;outlineConnect=0;" parent="1" vertex="1">
          <mxGeometry x="546" y="833" width="30" height="60" as="geometry" />
        </mxCell>
        <mxCell id="JaRT182NyoHVZg690AKc-3" value="System" style="swimlane;whiteSpace=wrap;html=1;fontStyle=0;startSize=43;" parent="1" vertex="1">
          <mxGeometry x="641" y="461" width="759" height="680" as="geometry" />
        </mxCell>
        <mxCell id="JaRT182NyoHVZg690AKc-9" value="채팅방 목록 조회" style="ellipse;whiteSpace=wrap;html=1;" parent="JaRT182NyoHVZg690AKc-3" vertex="1">
          <mxGeometry x="63" y="141" width="116" height="78" as="geometry" />
        </mxCell>
        <mxCell id="JaRT182NyoHVZg690AKc-13" value="사용자 닉네임 설정" style="ellipse;whiteSpace=wrap;html=1;" parent="JaRT182NyoHVZg690AKc-3" vertex="1">
          <mxGeometry x="257" y="69" width="140" height="70" as="geometry" />
        </mxCell>
        <mxCell id="jgtX1r-mgisJCosuYa0A-1" value="" style="endArrow=none;html=1;rounded=0;exitX=0;exitY=0.5;exitDx=0;exitDy=0;entryX=0.956;entryY=0.269;entryDx=0;entryDy=0;startArrow=classicThin;startFill=1;entryPerimeter=0;" edge="1" parent="JaRT182NyoHVZg690AKc-3" source="JaRT182NyoHVZg690AKc-13" target="JaRT182NyoHVZg690AKc-9">
          <mxGeometry width="50" height="50" relative="1" as="geometry">
            <mxPoint x="367" y="146" as="sourcePoint" />
            <mxPoint x="209" y="146" as="targetPoint" />
          </mxGeometry>
        </mxCell>
        <mxCell id="jgtX1r-mgisJCosuYa0A-6" value="채팅 방 생성" style="ellipse;whiteSpace=wrap;html=1;" vertex="1" parent="JaRT182NyoHVZg690AKc-3">
          <mxGeometry x="63" y="276" width="118" height="76" as="geometry" />
        </mxCell>
        <mxCell id="jgtX1r-mgisJCosuYa0A-8" value="채팅 방 제목 설정" style="ellipse;whiteSpace=wrap;html=1;" vertex="1" parent="JaRT182NyoHVZg690AKc-3">
          <mxGeometry x="276" y="191" width="140" height="70" as="geometry" />
        </mxCell>
        <mxCell id="jgtX1r-mgisJCosuYa0A-12" value="" style="endArrow=none;html=1;rounded=0;exitX=0;exitY=0.5;exitDx=0;exitDy=0;entryX=0.952;entryY=0.326;entryDx=0;entryDy=0;startArrow=classicThin;startFill=1;entryPerimeter=0;" edge="1" parent="JaRT182NyoHVZg690AKc-3" source="jgtX1r-mgisJCosuYa0A-8" target="jgtX1r-mgisJCosuYa0A-6">
          <mxGeometry width="50" height="50" relative="1" as="geometry">
            <mxPoint x="308" y="250" as="sourcePoint" />
            <mxPoint x="225" y="308" as="targetPoint" />
          </mxGeometry>
        </mxCell>
        <mxCell id="jgtX1r-mgisJCosuYa0A-13" value="&amp;lt;&amp;lt;Include&amp;gt;&amp;gt;" style="text;html=1;align=center;verticalAlign=middle;whiteSpace=wrap;rounded=0;" vertex="1" parent="JaRT182NyoHVZg690AKc-3">
          <mxGeometry x="163" y="241" width="60" height="30" as="geometry" />
        </mxCell>
        <mxCell id="jgtX1r-mgisJCosuYa0A-19" value="채팅 방 최대 참여&amp;nbsp;&lt;div&gt;인원 수&amp;nbsp;&lt;span style=&quot;background-color: initial;&quot;&gt;설정&lt;/span&gt;&lt;/div&gt;" style="ellipse;whiteSpace=wrap;html=1;" vertex="1" parent="JaRT182NyoHVZg690AKc-3">
          <mxGeometry x="291" y="279" width="140" height="70" as="geometry" />
        </mxCell>
        <mxCell id="jgtX1r-mgisJCosuYa0A-17" value="" style="endArrow=none;html=1;rounded=0;entryX=1;entryY=0.618;entryDx=0;entryDy=0;startArrow=classicThin;startFill=1;exitX=0;exitY=0.5;exitDx=0;exitDy=0;entryPerimeter=0;" edge="1" parent="JaRT182NyoHVZg690AKc-3" source="jgtX1r-mgisJCosuYa0A-19" target="jgtX1r-mgisJCosuYa0A-6">
          <mxGeometry width="50" height="50" relative="1" as="geometry">
            <mxPoint x="275" y="328" as="sourcePoint" />
            <mxPoint x="185" y="311" as="targetPoint" />
          </mxGeometry>
        </mxCell>
        <mxCell id="jgtX1r-mgisJCosuYa0A-22" value="채팅 방 입장." style="ellipse;whiteSpace=wrap;html=1;" vertex="1" parent="JaRT182NyoHVZg690AKc-3">
          <mxGeometry x="120" y="551" width="140" height="70" as="geometry" />
        </mxCell>
        <mxCell id="jgtX1r-mgisJCosuYa0A-21" value="" style="endArrow=none;html=1;rounded=0;startArrow=classicThin;startFill=1;exitX=0;exitY=0.5;exitDx=0;exitDy=0;entryX=0.5;entryY=1;entryDx=0;entryDy=0;" edge="1" parent="JaRT182NyoHVZg690AKc-3" source="jgtX1r-mgisJCosuYa0A-22" target="jgtX1r-mgisJCosuYa0A-6">
          <mxGeometry width="50" height="50" relative="1" as="geometry">
            <mxPoint x="169.23129325907703" y="457.68368651717356" as="sourcePoint" />
            <mxPoint x="123" y="345" as="targetPoint" />
          </mxGeometry>
        </mxCell>
        <mxCell id="jgtX1r-mgisJCosuYa0A-24" value="&amp;lt;&amp;lt;Include&amp;gt;&amp;gt;" style="text;html=1;align=center;verticalAlign=middle;whiteSpace=wrap;rounded=0;" vertex="1" parent="JaRT182NyoHVZg690AKc-3">
          <mxGeometry x="163" y="103" width="60" height="30" as="geometry" />
        </mxCell>
        <mxCell id="jgtX1r-mgisJCosuYa0A-25" value="&amp;lt;&amp;lt;Include&amp;gt;&amp;gt;" style="text;html=1;align=center;verticalAlign=middle;whiteSpace=wrap;rounded=0;" vertex="1" parent="JaRT182NyoHVZg690AKc-3">
          <mxGeometry x="206" y="287" width="60" height="30" as="geometry" />
        </mxCell>
        <mxCell id="jgtX1r-mgisJCosuYa0A-27" value="" style="endArrow=none;html=1;rounded=0;startArrow=classicThin;startFill=1;exitX=0;exitY=0.5;exitDx=0;exitDy=0;entryX=1;entryY=0;entryDx=0;entryDy=0;" edge="1" parent="JaRT182NyoHVZg690AKc-3" source="jgtX1r-mgisJCosuYa0A-29" target="jgtX1r-mgisJCosuYa0A-22">
          <mxGeometry width="50" height="50" relative="1" as="geometry">
            <mxPoint x="328" y="424" as="sourcePoint" />
            <mxPoint x="233" y="462" as="targetPoint" />
          </mxGeometry>
        </mxCell>
        <mxCell id="jgtX1r-mgisJCosuYa0A-28" value="&amp;lt;&amp;lt;Include&amp;gt;&amp;gt;" style="text;html=1;align=center;verticalAlign=middle;whiteSpace=wrap;rounded=0;" vertex="1" parent="JaRT182NyoHVZg690AKc-3">
          <mxGeometry x="214" y="454" width="60" height="30" as="geometry" />
        </mxCell>
        <mxCell id="jgtX1r-mgisJCosuYa0A-29" value="방 번호 선택" style="ellipse;whiteSpace=wrap;html=1;" vertex="1" parent="JaRT182NyoHVZg690AKc-3">
          <mxGeometry x="308" y="375" width="140" height="70" as="geometry" />
        </mxCell>
        <mxCell id="jgtX1r-mgisJCosuYa0A-31" value="" style="endArrow=none;html=1;rounded=0;entryX=1;entryY=0;entryDx=0;entryDy=0;startArrow=classicThin;startFill=1;exitX=0;exitY=0.5;exitDx=0;exitDy=0;" edge="1" parent="JaRT182NyoHVZg690AKc-3" source="jgtX1r-mgisJCosuYa0A-33" target="jgtX1r-mgisJCosuYa0A-22">
          <mxGeometry width="50" height="50" relative="1" as="geometry">
            <mxPoint x="381" y="477" as="sourcePoint" />
            <mxPoint x="248.23999999999978" y="476.9000000000003" as="targetPoint" />
          </mxGeometry>
        </mxCell>
        <mxCell id="jgtX1r-mgisJCosuYa0A-32" value="&amp;lt;&amp;lt;Include&amp;gt;&amp;gt;" style="text;html=1;align=center;verticalAlign=middle;whiteSpace=wrap;rounded=0;" vertex="1" parent="JaRT182NyoHVZg690AKc-3">
          <mxGeometry x="280" y="490" width="60" height="30" as="geometry" />
        </mxCell>
        <mxCell id="jgtX1r-mgisJCosuYa0A-33" value="WebSocket 세션 생성" style="ellipse;whiteSpace=wrap;html=1;" vertex="1" parent="JaRT182NyoHVZg690AKc-3">
          <mxGeometry x="370" y="464" width="140" height="70" as="geometry" />
        </mxCell>
        <mxCell id="jgtX1r-mgisJCosuYa0A-34" value="" style="endArrow=none;html=1;rounded=0;entryX=1;entryY=0.5;entryDx=0;entryDy=0;startArrow=classicThin;startFill=1;exitX=0;exitY=0.5;exitDx=0;exitDy=0;" edge="1" parent="JaRT182NyoHVZg690AKc-3" source="jgtX1r-mgisJCosuYa0A-35" target="jgtX1r-mgisJCosuYa0A-22">
          <mxGeometry width="50" height="50" relative="1" as="geometry">
            <mxPoint x="430" y="629" as="sourcePoint" />
            <mxPoint x="326" y="624" as="targetPoint" />
          </mxGeometry>
        </mxCell>
        <mxCell id="jgtX1r-mgisJCosuYa0A-35" value="실시간 채팅 메시지 입력" style="ellipse;whiteSpace=wrap;html=1;" vertex="1" parent="JaRT182NyoHVZg690AKc-3">
          <mxGeometry x="557" y="548" width="140" height="70" as="geometry" />
        </mxCell>
        <mxCell id="jgtX1r-mgisJCosuYa0A-36" value="&amp;lt;&amp;lt;Extends&amp;gt;&amp;gt;" style="text;html=1;align=center;verticalAlign=middle;whiteSpace=wrap;rounded=0;" vertex="1" parent="JaRT182NyoHVZg690AKc-3">
          <mxGeometry x="364" y="556" width="60" height="30" as="geometry" />
        </mxCell>
        <mxCell id="JaRT182NyoHVZg690AKc-8" value="" style="endArrow=none;html=1;rounded=0;exitX=0;exitY=0.5;exitDx=0;exitDy=0;entryX=0.5;entryY=0.5;entryDx=0;entryDy=0;startArrow=classicThin;startFill=1;entryPerimeter=0;" parent="1" source="JaRT182NyoHVZg690AKc-9" target="JaRT182NyoHVZg690AKc-2" edge="1">
          <mxGeometry width="50" height="50" relative="1" as="geometry">
            <mxPoint x="333" y="339" as="sourcePoint" />
            <mxPoint x="338" y="259" as="targetPoint" />
          </mxGeometry>
        </mxCell>
        <mxCell id="jgtX1r-mgisJCosuYa0A-7" value="" style="endArrow=none;html=1;rounded=0;exitX=0;exitY=0.5;exitDx=0;exitDy=0;startArrow=classicThin;startFill=1;entryX=0.5;entryY=0.5;entryDx=0;entryDy=0;entryPerimeter=0;" edge="1" parent="1" source="jgtX1r-mgisJCosuYa0A-6" target="JaRT182NyoHVZg690AKc-2">
          <mxGeometry width="50" height="50" relative="1" as="geometry">
            <mxPoint x="713" y="274" as="sourcePoint" />
            <mxPoint x="544" y="333" as="targetPoint" />
          </mxGeometry>
        </mxCell>
        <mxCell id="jgtX1r-mgisJCosuYa0A-26" value="" style="endArrow=none;html=1;rounded=0;exitX=0;exitY=0.5;exitDx=0;exitDy=0;startArrow=classicThin;startFill=1;entryX=0.5;entryY=0.5;entryDx=0;entryDy=0;entryPerimeter=0;" edge="1" parent="1" source="jgtX1r-mgisJCosuYa0A-22" target="JaRT182NyoHVZg690AKc-2">
          <mxGeometry width="50" height="50" relative="1" as="geometry">
            <mxPoint x="718" y="779" as="sourcePoint" />
            <mxPoint x="567" y="824" as="targetPoint" />
          </mxGeometry>
        </mxCell>
      </root>
    </mxGraphModel>
  </diagram>
</mxfile>
